<svg xmlns="http://www.w3.org/2000/svg" width="50.232" height="34.071" viewBox="0 0 50.232 34.071">
  <g id="Grupo_18537" data-name="Grupo 18537" transform="translate(-25.292 -18.694)">
    <g id="Light_Card" data-name="Light Card" transform="translate(25.292 18.694)">
      <g id="Grupo_14881" data-name="Grupo 14881" transform="translate(0)">
        <path id="Trazado_7214" data-name="Trazado 7214" d="M281.035,12.243,270,24.486h9.463L290.5,12.243,279.463,0H270Z" transform="translate(-251.11)" fill="#454546"/>
        <path id="Trazado_7215" data-name="Trazado 7215" d="M15.547,80.307l-4.983-1.645L13.688,83,10.616,87.3l4.931-1.645,3,4.333V84.641L23.577,83l-5.035-1.671V76ZM3.132,100.3a1.5,1.5,0,0,1,1.152.567l.105.129,1.348-.93-.12-.151a3.156,3.156,0,0,0-2.484-1.179,3.011,3.011,0,1,0,0,6.017A3.163,3.163,0,0,0,5.6,103.6l.12-.151-1.348-.93-.105.129a1.467,1.467,0,0,1-2.62-.892A1.5,1.5,0,0,1,3.132,100.3ZM17.6,102.081l-2.422-3.2h-1.54v5.667h1.5V101.37l2.257,3.173h1.7V98.877H17.6Zm5.779.831c0,.045-.06.053-.09.053a.1.1,0,0,1-.09-.06l-1.251-4.027H20.219l1.846,5.667h2.464l1.846-5.667H24.642Zm13.994-.688a1.763,1.763,0,0,0,.9-1.677,1.844,1.844,0,0,0-1.873-1.67H33.511v5.667h1.51V102.5h.68a.192.192,0,0,1,.174.068l.974,1.972h1.7Zm-1.054-1.178H34.98v-.63h1.343a.315.315,0,1,1,0,.63Zm9.431,3.5h4.477v-1.511H47.246v-.68h2.686v-1.36H47.246v-.6h2.985V98.877H45.754Zm-3.45-3.513c-.8-.18-1.035-.3-1.035-.564v-.015c0-.211.158-.376.548-.376a2.769,2.769,0,0,1,1.5.5l.9-1.068a3.625,3.625,0,0,0-2.371-.775c-1.4,0-2.228.782-2.228,1.865v.015c0,1.2.983,1.549,2.221,1.828.788.18,1.005.316,1.005.557v.015c0,.248-.278.4-.713.4a3.028,3.028,0,0,1-1.906-.7l-.908,1.076a4.2,4.2,0,0,0,2.776.963c1.411,0,2.4-.707,2.4-1.9v-.015C44.495,101.753,43.639,101.324,42.3,101.031ZM9.41,98.737a3.009,3.009,0,1,0,3.043,3.008A3.031,3.031,0,0,0,9.41,98.737Zm0,4.477a1.434,1.434,0,1,1,1.434-1.434A1.434,1.434,0,0,1,9.41,103.215Zm18.085,1.329h4.477v-1.511H28.987v-.68h2.686v-1.36H28.987v-.6h2.985V98.877H27.494Z" transform="translate(0 -70.683)" fill="#454546"/>
      </g>
    </g>
  </g>
</svg>
