<svg xmlns="http://www.w3.org/2000/svg" width="49.89" height="16.805" viewBox="0 0 49.89 16.805">
  <g id="Grupo_18534" data-name="Grupo 18534" transform="translate(-25.106 -27.199)">
    <g id="Light_Card" data-name="Light Card" transform="translate(25.106 27.199)">
      <g id="Grupo_14882" data-name="Grupo 14882">
        <path id="Trazado_7216" data-name="Trazado 7216" d="M340.31,272.7h10.258a2.163,2.163,0,0,1,2.176,2.185v.159a2.2,2.2,0,0,1-2.176,2.225H340.31a2.23,2.23,0,0,1-2.215-2.225v-.159a2.2,2.2,0,0,1,2.215-2.185Z" transform="translate(-338.095 -272.342)" fill="#454546" fill-rule="evenodd"/>
        <path id="Trazado_7217" data-name="Trazado 7217" d="M338.1,293.99a2.193,2.193,0,0,1,2.292-2.066h9.092a2.2,2.2,0,0,1,2.176,2.225v.119a2.2,2.2,0,0,1-2.176,2.225H343.3a.6.6,0,0,0-.583.6v3.1a2.2,2.2,0,0,1-2.176,2.225h-.272a2.2,2.2,0,0,1-2.176-2.225v-6.2Z" transform="translate(-338.095 -285.608)" fill="#454546" fill-rule="evenodd"/>
        <path id="Trazado_7218" data-name="Trazado 7218" d="M390.939,286.126l-.039-12.315a2.207,2.207,0,0,1,2.176-2.265h.233a2.232,2.232,0,0,1,2.176,2.265l.039,12.315a2.2,2.2,0,0,1-2.176,2.225h-.272a2.165,2.165,0,0,1-2.137-2.225Z" transform="translate(-374.893 -271.546)" fill="#454546" fill-rule="evenodd"/>
        <path id="Trazado_7219" data-name="Trazado 7219" d="M433.25,273.105l4.857,8.1c1.088,1.748,1.321,2.185,1.321,3.5a3.669,3.669,0,0,1-3.419,3.575h-6.566a2.065,2.065,0,0,1-2.176-2.066V286.1a2.2,2.2,0,0,1,2.176-2.225h4.041c.233,0,.389-.039.466-.2.078-.2.039-.278-.078-.477L431,278.468c-.039-.079-.078-.2-.155-.2-.116,0-.156.119-.194.2l-4.391,7.707c-.7,1.232-1.515,2.106-2.681,2.106h-8.431a3.439,3.439,0,0,1-3.225-3.257V273.9a2.2,2.2,0,0,1,2.176-2.225h.272a2.2,2.2,0,0,1,2.176,2.225V283a.579.579,0,0,0,.583.6h4.2a1.6,1.6,0,0,0,1.554-.953l5.634-9.534a2.709,2.709,0,0,1,2.409-1.391,2.6,2.6,0,0,1,2.331,1.391Z" transform="translate(-389.538 -271.635)" fill="#454546" fill-rule="evenodd"/>
        <path id="Trazado_7220" data-name="Trazado 7220" d="M340.31,272.7h10.258a2.163,2.163,0,0,1,2.176,2.185v.159a2.2,2.2,0,0,1-2.176,2.225H340.31a2.23,2.23,0,0,1-2.215-2.225v-.159a2.2,2.2,0,0,1,2.215-2.185Z" transform="translate(-338.095 -272.342)" fill="#454546" fill-rule="evenodd"/>
      </g>
    </g>
  </g>
</svg>
