<svg id="instagram" xmlns="http://www.w3.org/2000/svg" width="23.718" height="23.718" viewBox="0 0 23.718 23.718">
  <g id="instagram_icon" data-name="instagram icon" transform="translate(0)">
    <path id="instagram_icon-2" data-name="instagram icon" d="M6.981,23.718a6.992,6.992,0,0,1-5.014-1.873A6.71,6.71,0,0,1,0,16.763V6.955A6.611,6.611,0,0,1,6.981,0h9.847a6.9,6.9,0,0,1,5.011,1.961,6.776,6.776,0,0,1,1.879,4.994v9.808a7.054,7.054,0,0,1-1.967,5.082,6.984,6.984,0,0,1-5.014,1.873ZM4.114,4.112a4.477,4.477,0,0,0-1.149,3.2v9.018A4.519,4.519,0,0,0,4.2,19.606a4.624,4.624,0,0,0,3.194,1.146h8.939a4.479,4.479,0,0,0,3.2-1.146,4.2,4.2,0,0,0,1.23-3.2V7.391a4.62,4.62,0,0,0-1.146-3.2,4.389,4.389,0,0,0-3.279-1.229H7.309A4.473,4.473,0,0,0,4.114,4.112Zm1.815,7.747a5.917,5.917,0,0,1,5.888-5.93,5.93,5.93,0,1,1,0,11.859A5.916,5.916,0,0,1,5.929,11.859Zm2.968,0A2.965,2.965,0,1,0,11.86,8.895,2.964,2.964,0,0,0,8.9,11.859Zm7.411-5.93A1.482,1.482,0,1,1,17.79,7.412,1.462,1.462,0,0,1,16.307,5.929Z" fill="#232323"/>
  </g>
</svg>
