<svg xmlns="http://www.w3.org/2000/svg" width="65.249" height="30.386" viewBox="0 0 65.249 30.386">
  <g id="Grupo_18542" data-name="Grupo 18542" transform="translate(-16.738 -20.922)">
    <g id="Light_Card" data-name="Light Card" transform="translate(16.738 20.922)">
      <g id="Grupo_14880" data-name="Grupo 14880" transform="translate(0)">
        <path id="Trazado_7249" data-name="Trazado 7249" d="M55.415,112.413a6.351,6.351,0,0,0-3.716-1.048,6.79,6.79,0,0,0-3.714,1.048,4.013,4.013,0,0,0-1.62,3.238,3.838,3.838,0,0,0,1.62,3.143,6.791,6.791,0,0,0,3.714,1.048,6.352,6.352,0,0,0,3.716-1.048,3.606,3.606,0,0,0,1.619-3.143A3.768,3.768,0,0,0,55.415,112.413ZM51.7,113.746a2.957,2.957,0,0,1,1.62.476,1.8,1.8,0,0,1,.667,1.238q.142,2-2.287,2a2.654,2.654,0,0,1-1.714-.572,1.936,1.936,0,0,1-.572-1.429,2.276,2.276,0,0,1,.666-1.238A2.959,2.959,0,0,1,51.7,113.746Zm16-2.1H64.273l-3.333,3.144v-5.715H57.8v10.573h3.144v-4.287l3.143,4.287h4l-4.1-4.572,3.714-3.43Zm-38.2-.094A6.466,6.466,0,0,0,25.7,112.6a3.98,3.98,0,0,0-1.524,3.049c0,2.571,1.81,3.906,5.525,4h4.667v-2.191H29.886c-1.238-.1-2.1-.382-2.381-.953a1.6,1.6,0,0,1-.1-1.714,2.3,2.3,0,0,1,2.1-1.048h1.9l-2.1,2.762h2.953l2.1-2.667v-2.286H29.505Zm9.049-2.476H35.316v10.478h5.905a4.248,4.248,0,0,0,3.144-1.144,3.675,3.675,0,0,0,1.334-2.762c0-2.286-.952-3.525-2.857-3.905l-2.667-.1-1.429,2.1h1.238c1.905,0,2.762.572,2.762,1.905-.1,1.143-.952,1.81-2.571,1.81h-1.62v-8.382Zm-35.72,0v10.478H6.073v-8.1H9.121c.666.19,1.143.572,1.048,1.333a.881.881,0,0,1-.572.953l-3.048.285,3.334,5.62h3.905L10.55,115.27c2-.1,2.953-1.143,2.762-3.048a2.715,2.715,0,0,0-1.333-2.381,5.31,5.31,0,0,0-2.858-.762H2.834Z" transform="translate(-2.834 -89.457)" fill="#454546" fill-rule="evenodd"/>
        <path id="Trazado_7250" data-name="Trazado 7250" d="M38.928,74.914a6.467,6.467,0,0,0-3.81,1.047,3.45,3.45,0,0,0-1.429,2.954c-.095,2.667,1.715,4,5.334,4h4.763v-2.1H39.31c-1.239-.1-2.1-.382-2.381-.953a1.6,1.6,0,0,1-.1-1.714,2.3,2.3,0,0,1,2.1-1.048h1.9l-2.1,2.762h2.953l2.1-2.762V74.915H38.928ZM55.884,55.673l4.953,3.048,7.906-2.953c2.668-.857,6.1-1.81,10.193-2.953C68.839,53.673,61.218,54.53,55.884,55.673Zm-3.81,3.239-4.382-1.143a27.228,27.228,0,0,0-7.048,3.049A16.785,16.785,0,0,0,35.6,65.294h7.43a12.528,12.528,0,0,1,2.762-2.763A22.611,22.611,0,0,1,52.074,58.912Zm5.239,1.809L53.6,59.483A17.994,17.994,0,0,0,50.454,61.2a23.427,23.427,0,0,0-4.572,4.1h6.953A18.228,18.228,0,0,1,57.313,60.721Zm-8.478-7.906H33.976l14.859,4a184.647,184.647,0,0,1,18.289,6.668L48.835,52.815Z" transform="translate(-22.927 -52.815)" fill="#454546" fill-rule="evenodd"/>
      </g>
    </g>
  </g>
</svg>
