<svg xmlns="http://www.w3.org/2000/svg" xmlns:xlink="http://www.w3.org/1999/xlink" width="40" height="40" viewBox="0 0 40 40">
  <defs>
    <linearGradient id="linear-gradient" x1="0.501" y1="1" x2="0.501" y2="0.002" gradientUnits="objectBoundingBox">
      <stop offset="0" stop-color="#f9f9f9"/>
      <stop offset="1" stop-color="#fff"/>
    </linearGradient>
  </defs>
  <g id="Grupo_18438" data-name="Grupo 18438" transform="translate(-1300 -702)">
    <circle id="Elipse_3384" data-name="Elipse 3384" cx="20" cy="20" r="20" transform="translate(1300 702)" fill="#00bb2d"/>
    <path id="Trazado_61766" data-name="Trazado 61766" d="M.174-549.688a12.121,12.121,0,0,0,1.62,6.069L.072-537.327l6.435-1.688a12.122,12.122,0,0,0,5.8,1.478h.005a12.157,12.157,0,0,0,12.138-12.14,12.068,12.068,0,0,0-3.552-8.589,12.06,12.06,0,0,0-8.586-3.56A12.156,12.156,0,0,0,.174-549.688Zm3.832,5.753-.24-.382a10.066,10.066,0,0,1-1.542-5.37,10.1,10.1,0,0,1,10.093-10.09,10.021,10.021,0,0,1,7.133,2.959,10.031,10.031,0,0,1,2.952,7.139,10.1,10.1,0,0,1-10.089,10.091h0a10.073,10.073,0,0,1-5.135-1.407l-.369-.219-3.819,1Z" transform="translate(1307.405 1271.243)" fill="url(#linear-gradient)"/>
    <path id="Trazado_61767" data-name="Trazado 61767" d="M173.678,175.193c-.206-.552-.424-.563-.62-.573-.161-.008-.345-.008-.528-.008a.946.946,0,0,0-.735.415,4.068,4.068,0,0,0-.965,2.765,7.181,7.181,0,0,0,1.126,3.429c.138.221,1.907,3.676,4.709,5,2.329,1.1,2.8.885,3.308.83a2.848,2.848,0,0,0,1.861-1.576,3.3,3.3,0,0,0,.161-1.576c-.069-.138-.253-.221-.528-.387s-1.631-.968-1.884-1.079-.437-.166-.62.166-.712,1.078-.873,1.3-.322.249-.6.083a7.4,7.4,0,0,1-2.217-1.646,9.953,9.953,0,0,1-1.534-2.3.542.542,0,0,1,.121-.677c.124-.149.276-.387.414-.581a2.406,2.406,0,0,0,.275-.553.719.719,0,0,0-.023-.581c-.069-.166-.6-1.806-.85-2.461" transform="translate(1143.289 540.83)" fill="#fff" fill-rule="evenodd"/>
  </g>
</svg>
